<?xml version="1.0" standalone="no"?>
<!DOCTYPE svg PUBLIC "-//W3C//DTD SVG 1.1//EN" "http://www.w3.org/Graphics/SVG/1.1/DTD/svg11.dtd" >
<svg xmlns="http://www.w3.org/2000/svg" xmlns:xlink="http://www.w3.org/1999/xlink" version="1.1">
<metadata>
Created by FontForge 20160405 at Mon May 15 16:26:31 2017
 By www-data
Gobold (c) Situjuh Nazara. 2013. All Rights Reserved
</metadata>
<defs>
<font id="GoboldBold" horiz-adv-x="1053" >
  <font-face 
    font-family="Gobold Bold"
    font-weight="400"
    font-stretch="normal"
    units-per-em="2048"
    panose-1="2 0 5 0 0 0 0 0 0 0"
    ascent="1638"
    descent="-410"
    x-height="1738"
    cap-height="1982"
    bbox="-283 -370 2269 2314"
    underline-thickness="150"
    underline-position="-292"
    unicode-range="U+001D-F002"
  />
<missing-glyph horiz-adv-x="1984" 
d="M1109 1729q-151 -39 -246 -144q-32 -36 -86 -117q-60 -91 -86 -124q-80 -99 -130 -139q-82 -66 -172 -66q-73 0 -124 37q-57 41 -68 115q-2 18 -2 36q0 65 31 121q44 77 123 91q20 4 37 4q27 0 48 -9q41 -18 42 -68q-11 13 -27 13q-13 0 -24 -10q-12 -12 -12 -26
q0 -35 36 -35h2q37 0 57 41q10 22 10 44q0 21 -9 43q-17 44 -57 65q-44 23 -107 23q-15 0 -31 -1q-133 -11 -214 -110v216h1009zM100 1100q78 -80 209 -80q18 0 38 2q107 9 253 154q40 40 111 119q64 71 89 94q66 61 134 61q37 0 74 -17q109 -50 221 -50q74 0 149 22
q148 44 276 163q-16 -199 -146 -369q-25 -32 -275 -290h-66q-50 0 -83 39l-106 -106h192q-234 -260 -275 -462q-11 -56 -11 -105q0 -80 29 -142q46 -99 165 -137h-239v848l45 24v41h-784v191zM387 842q93 0 132 -39q40 -39 40 -132v-675h-459v846h287zM629 844h44v-848h-44
v848zM1419 -4q250 57 415 203v-203h-415zM1834 217q-159 -89 -299 -106q-29 -3 -56 -3q-99 0 -155 47q-55 46 -55 128q0 31 8 67q32 146 190 349q75 95 108 143h186v-58h73v-567zM1620 909q123 201 123 433q0 52 -6 106q-19 160 -22 159q8 62 119 96v-794h-214zM841 1263
q-89 0 -149 -52q-52 -46 -64 -114q-3 -17 -3 -33q0 -45 25 -77q31 -42 90 -42q10 0 20 1q72 8 93 74q6 18 6 33q0 44 -43 75q-36 26 -36 57q0 6 2 13q8 38 59 50v15z" />
    <glyph glyph-name=".notdef" horiz-adv-x="1984" 
d="M1109 1729q-151 -39 -246 -144q-32 -36 -86 -117q-60 -91 -86 -124q-80 -99 -130 -139q-82 -66 -172 -66q-73 0 -124 37q-57 41 -68 115q-2 18 -2 36q0 65 31 121q44 77 123 91q20 4 37 4q27 0 48 -9q41 -18 42 -68q-11 13 -27 13q-13 0 -24 -10q-12 -12 -12 -26
q0 -35 36 -35h2q37 0 57 41q10 22 10 44q0 21 -9 43q-17 44 -57 65q-44 23 -107 23q-15 0 -31 -1q-133 -11 -214 -110v216h1009zM100 1100q78 -80 209 -80q18 0 38 2q107 9 253 154q40 40 111 119q64 71 89 94q66 61 134 61q37 0 74 -17q109 -50 221 -50q74 0 149 22
q148 44 276 163q-16 -199 -146 -369q-25 -32 -275 -290h-66q-50 0 -83 39l-106 -106h192q-234 -260 -275 -462q-11 -56 -11 -105q0 -80 29 -142q46 -99 165 -137h-239v848l45 24v41h-784v191zM387 842q93 0 132 -39q40 -39 40 -132v-675h-459v846h287zM629 844h44v-848h-44
v848zM1419 -4q250 57 415 203v-203h-415zM1834 217q-159 -89 -299 -106q-29 -3 -56 -3q-99 0 -155 47q-55 46 -55 128q0 31 8 67q32 146 190 349q75 95 108 143h186v-58h73v-567zM1620 909q123 201 123 433q0 52 -6 106q-19 160 -22 159q8 62 119 96v-794h-214zM841 1263
q-89 0 -149 -52q-52 -46 -64 -114q-3 -17 -3 -33q0 -45 25 -77q31 -42 90 -42q10 0 20 1q72 8 93 74q6 18 6 33q0 44 -43 75q-36 26 -36 57q0 6 2 13q8 38 59 50v15z" />
    <glyph glyph-name=".null" horiz-adv-x="0" 
 />
    <glyph glyph-name=".null" horiz-adv-x="0" 
 />
    <glyph glyph-name="nonmarkingreturn" horiz-adv-x="508" 
 />
    <glyph glyph-name="space" unicode=" " horiz-adv-x="508" 
 />
    <glyph glyph-name="space" unicode="&#xa0;" horiz-adv-x="508" 
 />
    <glyph glyph-name="exclam" unicode="!" horiz-adv-x="616" 
d="M495 1982l-21 -1472h-333l-21 1472h375zM120 345h375v-365h-375v365z" />
    <glyph glyph-name="quotedbl" unicode="&#x22;" horiz-adv-x="1020" 
d="M552 1983h348l-36 -692h-276zM120 1983h348l-36 -692h-276z" />
    <glyph glyph-name="numbersign" unicode="#" horiz-adv-x="1399" 
d="M288 903l43 217h-209v193h248l133 670h287l-133 -670h195l133 670h287l-133 -670h180v-193h-219l-43 -217h220v-193h-259l-145 -730h-287l145 730h-195l-145 -730h-287l145 730h-169v193h208zM618 1120l-43 -217h195l43 217h-195z" />
    <glyph glyph-name="dollar" unicode="$" horiz-adv-x="1103" 
d="M120 1613q0 374 290 420v180h282v-180q291 -46 291 -420v-284h-334v284q0 112 -97 113h-2q-97 0 -97 -113v-178q0 -123 255 -305q275 -196 275 -469v-248q0 -375 -291 -420v-243h-282v243q-290 46 -290 420v283h333v-283q0 -113 98 -113t98 113v223q0 134 -255 317
q-274 196 -274 476v184z" />
    <glyph glyph-name="percent" unicode="%" horiz-adv-x="1747" 
d="M652 1079q0 -262 -263 -262q-264 0 -264 262v704q0 262 264 262q263 0 263 -262v-704zM1622 243q0 -262 -264 -262h-2q-261 0 -261 262v704q0 262 263 262q264 0 264 -262v-704zM1406 947q0 58 -47 58h-2q-46 0 -46 -58v-704q0 -58 47 -58q48 0 48 58v704zM1339 1983
l-736 -2003h-228l737 2003h227zM436 1783q0 58 -47 58h-2q-46 0 -46 -58v-704q0 -58 48 -58q47 0 47 58v704z" />
    <glyph glyph-name="ampersand" unicode="&#x26;" horiz-adv-x="1233" 
d="M484 308q18 -9 65 -9q11 0 24 1q77 3 77 113v440h-98q-21 -1 -36 -7q-63 -24 -63 -106v-327q0 -93 31 -105zM650 1172v134h333v-134h180v-319h-180v-440q0 -415 -369 -431q-35 -1 -66 -1q-63 0 -109 5q-319 38 -319 427v327q0 204 134 273q-134 69 -134 273v295
q0 401 340 430q44 3 90 3q39 0 80 -2q353 -24 353 -431v-104h-333v104q0 104 -50 111q-21 4 -46 4q-21 0 -45 -3q-56 -6 -56 -112v-295q0 -82 63 -107q15 -6 36 -7h98z" />
    <glyph glyph-name="quotesingle" unicode="'" horiz-adv-x="588" 
d="M120 1983h348l-36 -692h-276z" />
    <glyph glyph-name="parenleft" unicode="(" horiz-adv-x="594" 
d="M564 -267q-444 5 -444 433v1632q0 427 444 432v-271q-111 -3 -111 -115v-1725q0 -111 111 -114v-272z" />
    <glyph glyph-name="parenright" unicode=")" horiz-adv-x="594" 
d="M30 5q111 3 111 114v1725q0 112 -111 115v271q444 -5 444 -432v-1632q0 -428 -444 -433v272z" />
    <glyph glyph-name="asterisk" unicode="*" horiz-adv-x="1062" 
d="M680 1877q-9 -51 -9 -61v-2l1 1v-1q6 0 61 25q38 19 73 19q86 0 123 -110q13 -39 13 -70q0 -98 -121 -116q-18 -2 -41 -2q-50 0 -50 -3q0 -2 10 -4q22 -10 70 -62q43 -45 43 -91q0 -60 -72 -113q-57 -42 -107 -42q-72 0 -113 84q-22 44 -28 44q-1 0 -1 -5v-3q0 3 -1 3
q-5 0 -31 -46q-42 -76 -112 -76q-47 0 -103 39q-76 54 -76 113q0 48 50 96q52 53 58 55q14 3 14 5q0 3 -47 3q-30 0 -51 5q-113 21 -113 117q0 29 12 66q34 112 122 112q37 0 81 -22q46 -24 53 -24q1 0 1 1t-2 3q0 -1 -8 68q-1 13 -1 25q0 124 151 125h4q150 0 150 -119
q0 -17 -3 -37z" />
    <glyph glyph-name="plus" unicode="+" horiz-adv-x="1097" 
d="M408 845h-288v273h288v287h282v-287h287v-273h-287v-287h-282v287z" />
    <glyph glyph-name="comma" unicode="," horiz-adv-x="641" 
d="M120 345h401v-309l-113 -383h-232l58 327h-114v365z" />
    <glyph glyph-name="hyphen" unicode="-" horiz-adv-x="836" 
d="M50 821v273h736v-273h-736z" />
    <glyph glyph-name="hyphen" unicode="&#xad;" horiz-adv-x="836" 
d="M50 821v273h736v-273h-736z" />
    <glyph glyph-name="period" unicode="." horiz-adv-x="615" 
d="M120 345h375v-365h-375v365z" />
    <glyph glyph-name="slash" unicode="/" horiz-adv-x="807" 
d="M746 1983l-399 -2003h-287l399 2003h287z" />
    <glyph glyph-name="zero" unicode="0" horiz-adv-x="1103" 
d="M983 381q0 -432 -432 -432q-431 0 -431 432v1200q0 433 431 433q432 0 432 -433v-1200zM650 1581q0 113 -98 113h-2q-97 0 -97 -113v-1200q0 -113 98 -113q99 0 99 113v1200z" />
    <glyph glyph-name="one" unicode="1" horiz-adv-x="1123" 
d="M728 1982v-1683h265v-319h-863v319h265v1364h-265v319h598z" />
    <glyph glyph-name="two" unicode="2" horiz-adv-x="1123" 
d="M130 421q0 274 273 469q256 183 257 306v385q0 113 -97 113h-2q-98 0 -98 -113v-283h-333v283q0 433 431 433q432 0 432 -433v-392q0 -279 -274 -475q-256 -183 -256 -317v-98h530v-319h-863v441z" />
    <glyph glyph-name="three" unicode="3" horiz-adv-x="1123" 
d="M460 382q3 -113 102 -113q98 0 101 113v334q0 95 -32 109q-18 8 -62 8h-121v319h143q32 0 46 8q26 15 26 104v317q-3 113 -101 113q-99 0 -102 -113v-283h-330v283q0 432 432 433q431 0 431 -433v-319q0 -204 -134 -273q134 -69 134 -273v-334q0 -433 -431 -433
q-432 1 -432 433v283h330v-283z" />
    <glyph glyph-name="four" unicode="4" horiz-adv-x="1123" 
d="M959 1982v-1202h109v-319h-109v-481h-333v481h-574v271l503 1250h404zM390 780h236v599z" />
    <glyph glyph-name="five" unicode="5" horiz-adv-x="1124" 
d="M651 938q0 92 -31 105q-18 9 -65 9q-12 0 -25 -1q-65 -3 -73 -58l-4 -98h-333l44 1087h820v-319h-500l-16 -335q31 36 168 36q19 0 38 -2q160 -14 244 -129q66 -91 66 -295v-557q0 -432 -432 -432q-431 0 -431 432v252h333v-252q0 -113 98 -113q99 0 99 113v557z" />
    <glyph glyph-name="six" unicode="6" horiz-adv-x="1123" 
d="M993 381q0 -432 -432 -432q-431 0 -431 432v1200q0 433 431 433q432 0 432 -433v-283h-333v283q0 113 -98 113h-2q-97 0 -97 -113v-425q43 39 170 39q22 0 46 -2q147 -15 230 -105q84 -91 84 -317v-390zM463 381q0 -113 98 -113q99 0 99 113v390q0 93 -31 105
q-18 9 -65 9q-12 0 -25 -1q-76 -3 -76 -113v-390z" />
    <glyph glyph-name="seven" unicode="7" horiz-adv-x="1123" 
d="M121 1663v319h887v-223l-400 -1779h-341l378 1683h-524z" />
    <glyph glyph-name="eight" unicode="8" horiz-adv-x="1123" 
d="M460 1261q0 -117 101 -117q102 0 102 117v320q-3 113 -101 113q-99 0 -102 -113v-320zM130 713q0 204 134 273q-134 69 -134 273v322q0 432 432 433q431 0 431 -433v-322q0 -204 -134 -273q134 -69 134 -273v-331q0 -433 -431 -433q-432 1 -432 433v331zM460 382
q3 -113 102 -113q98 0 101 113v331q0 95 -32 109q-18 8 -65 8q-13 0 -27 -1q-79 -3 -79 -116v-331z" />
    <glyph glyph-name="nine" unicode="9" horiz-adv-x="1123" 
d="M660 1581q0 113 -98 113q-99 0 -99 -113v-390q0 -92 31 -105q17 -8 63 -8q12 0 27 1q76 2 76 112v390zM130 1581q0 432 432 433q431 0 431 -433v-1200q0 -432 -432 -432q-431 0 -431 432v284h333v-284q0 -112 98 -113h2q97 0 97 113v426q-45 -40 -173 -40q-20 0 -43 2
q-147 15 -230 105q-84 92 -84 317v390z" />
    <glyph glyph-name="colon" unicode=":" horiz-adv-x="614" 
d="M120 1349h374v-364h-374v364zM120 345h374v-365h-374v365z" />
    <glyph glyph-name="semicolon" unicode=";" horiz-adv-x="641" 
d="M120 345h401v-309l-113 -383h-232l58 327h-114v365zM120 1349h375v-364h-375v364z" />
    <glyph glyph-name="semicolon" unicode="&#x37e;" horiz-adv-x="641" 
d="M120 345h401v-309l-113 -383h-232l58 327h-114v365zM120 1349h375v-364h-375v364z" />
    <glyph glyph-name="less" unicode="&#x3c;" horiz-adv-x="1097" 
d="M120 1130l857 480v-323l-567 -310l567 -300v-323l-857 465v311z" />
    <glyph glyph-name="equal" unicode="=" horiz-adv-x="1097" 
d="M120 1076v273h857v-273h-857zM120 613v272h857v-272h-857z" />
    <glyph glyph-name="greater" unicode="&#x3e;" horiz-adv-x="1097" 
d="M977 819l-857 -465v323l567 300l-567 310v323l857 -480v-311z" />
    <glyph glyph-name="question" unicode="?" horiz-adv-x="1103" 
d="M236 345h375v-365h-375v365zM983 1384q0 -256 -206 -461q-192 -191 -192 -331v-65h-333v89q0 252 206 456q192 190 192 319v190q0 113 -97 113h-2q-98 0 -98 -113v-283h-333v283q0 433 432 433q431 0 431 -433v-197z" />
    <glyph glyph-name="at" unicode="@" horiz-adv-x="1533" 
d="M1402 1283v-59q0 -292 -292 -292h-84v-324q0 -292 -293 -292q-292 0 -292 292v257q0 291 292 291h57v242q0 67 -56 67h-2q-55 0 -55 -67v-90h-236v90q0 291 292 291q293 0 293 -291v-242h84q56 0 56 68v186q0 392 -399 392q-400 0 -400 -405v-801q0 -392 400 -392
q399 0 399 404v63h237v-63q0 -627 -636 -627q-637 0 -637 615v801q0 628 637 628q636 0 636 -615v-127h-1zM717 933q-56 0 -56 -68v-257q0 -68 56 -68q57 0 57 68v324z" />
    <glyph glyph-name="A" unicode="A" horiz-adv-x="1107" 
d="M972 698l95 -718h-336l-55 416h-245l-56 -416h-335l95 715l203 1287h432zM633 716l-80 606l-80 -606h160z" />
    <glyph glyph-name="B" unicode="B" horiz-adv-x="1093" 
d="M130 1982h461q402 -1 402 -433v-295q0 -204 -134 -273q134 -69 134 -273v-296q0 -431 -419 -432h-444v2002zM463 1663v-522h64q54 0 70 6q63 25 63 107v295q0 114 -98 114h-99zM463 821v-522h99q98 0 98 113v296q0 82 -63 106q-17 7 -70 7h-64z" />
    <glyph glyph-name="C" unicode="C" horiz-adv-x="1073" 
d="M973 381q0 -432 -432 -433q-431 0 -431 433v1200q0 432 431 432q432 0 432 -432v-284h-333v284q0 112 -98 113h-2q-97 0 -97 -113v-1200q0 -113 98 -113q99 0 99 113v284h333v-284z" />
    <glyph glyph-name="D" unicode="D" horiz-adv-x="1103" 
d="M130 1982h461q402 -1 402 -433v-1137q0 -431 -419 -432h-444v2002zM463 1663v-1364h99q98 0 98 113v1137q0 114 -98 114h-99z" />
    <glyph glyph-name="E" unicode="E" horiz-adv-x="994" 
d="M130 1982h784v-319h-451v-522h388v-320h-388v-522h451v-319h-784v2002z" />
    <glyph glyph-name="F" unicode="F" horiz-adv-x="974" 
d="M130 1982h784v-319h-451v-522h388v-320h-388v-841h-333v2002z" />
    <glyph glyph-name="G" unicode="G" horiz-adv-x="1083" 
d="M554 1141h419v-760q0 -432 -432 -433q-431 0 -431 433v1200q0 432 431 432q432 0 432 -432v-284h-333v284q0 112 -98 113h-2q-97 0 -97 -113v-1200q0 -113 98 -113q99 0 99 113v440h-86v320z" />
    <glyph glyph-name="H" unicode="H" horiz-adv-x="1123" 
d="M130 1982h333v-841h197v841h333v-2002h-333v841h-197v-841h-333v2002z" />
    <glyph glyph-name="I" unicode="I" horiz-adv-x="603" 
d="M135 1982h333v-2002h-333v2002z" />
    <glyph glyph-name="J" unicode="J" horiz-adv-x="1023" 
d="M30 517h333v-136q0 -113 99 -113q98 0 98 113v1601h333v-1601q0 -433 -431 -433q-432 1 -432 433v136z" />
    <glyph glyph-name="K" unicode="K" horiz-adv-x="1116" 
d="M694 981l382 -1001h-356l-257 798v-798h-333v2002h333v-795l257 795h356z" />
    <glyph glyph-name="L" unicode="L" horiz-adv-x="954" 
d="M130 -20v2002h333v-1683h451v-319h-784z" />
    <glyph glyph-name="M" unicode="M" horiz-adv-x="1538" 
d="M771 655l308 1327h329v-2002h-321v921l-196 -921h-234l-203 927v-927h-324v2002h329z" />
    <glyph glyph-name="N" unicode="N" horiz-adv-x="1123" 
d="M130 1982h329l222 -986v986h312v-2002h-329l-212 959v-959h-322v2002z" />
    <glyph glyph-name="O" unicode="O" horiz-adv-x="1083" 
d="M973 381q0 -432 -432 -433q-431 0 -431 433v1200q0 432 431 432q432 0 432 -432v-1200zM640 1581q0 112 -98 113h-2q-97 0 -97 -113v-1200q0 -113 98 -113q99 0 99 113v1200z" />
    <glyph glyph-name="P" unicode="P" horiz-adv-x="1049" 
d="M130 1982h437q402 -1 402 -433v-295q0 -317 -287 -411q-69 -22 -198 -22h-21v-841h-333v2002zM463 1663v-522h40q54 0 70 6q63 25 63 107v295q0 114 -98 114h-75z" />
    <glyph glyph-name="Q" unicode="Q" horiz-adv-x="1083" 
d="M973 381q0 -385 -309 -424q2 -27 309 -29v-276q-283 0 -383 52q-134 68 -137 249q-343 25 -343 428v1200q0 432 431 432q432 0 432 -432v-1200zM640 1581q0 112 -98 113h-2q-97 0 -97 -113v-1200q0 -113 98 -113q99 0 99 113v1200z" />
    <glyph glyph-name="R" unicode="R" horiz-adv-x="1102" 
d="M130 1982h437q402 -1 402 -433v-295q0 -272 -218 -352l321 -922h-363l-228 861h-18v-861h-333v2002zM463 1663v-522h40q54 0 70 6q63 25 63 107v295q0 114 -98 114h-75z" />
    <glyph glyph-name="S" unicode="S" horiz-adv-x="1083" 
d="M110 1581q0 432 431 432q432 0 432 -432v-284h-333v284q0 112 -98 113h-2q-97 0 -97 -113v-178q0 -122 256 -306q274 -195 274 -468v-248q0 -433 -431 -433q-432 1 -432 433v284h333v-284q0 -113 99 -113q98 0 98 113v224q0 133 -256 317q-274 195 -274 475v184z" />
    <glyph glyph-name="T" unicode="T" horiz-adv-x="963" 
d="M913 1982v-319h-265v-1683h-333v1683h-265v319h863z" />
    <glyph glyph-name="U" unicode="U" horiz-adv-x="1103" 
d="M983 381q0 -432 -432 -433q-431 0 -431 433v1601h333v-1601q0 -113 98 -113q99 0 99 113v1601h333v-1601z" />
    <glyph glyph-name="V" unicode="V" horiz-adv-x="1107" 
d="M770 -20h-432l-203 1286l-95 716h336l177 -1569l178 1569h336l-95 -718z" />
    <glyph glyph-name="W" unicode="W" horiz-adv-x="1788" 
d="M1234 509l178 1473h336l-95 -718l-202 -1284h-432l-125 1084l-124 -1084h-432l-203 1286l-95 716h335l178 -1473l178 1473h325z" />
    <glyph glyph-name="X" unicode="X" horiz-adv-x="1082" 
d="M376 1982l165 -574l164 574h336l-332 -1001l332 -1001h-336l-164 636l-165 -636h-336l332 1001l-332 1001h336z" />
    <glyph glyph-name="Y" unicode="Y" horiz-adv-x="1130" 
d="M392 1982l173 -773l173 773h352l-351 -1138l-7 -21v-843h-333v842l-8 22l-351 1138h352z" />
    <glyph glyph-name="Z" unicode="Z" horiz-adv-x="930" 
d="M833 1790l-378 -1491h395v-319h-770v192l378 1491h-365v319h740v-192z" />
    <glyph glyph-name="bracketleft" unicode="[" horiz-adv-x="597" 
d="M567 2230v-272h-154v-1952h154v-273h-437v2497h437z" />
    <glyph glyph-name="backslash" unicode="\" horiz-adv-x="807" 
d="M347 1983l399 -2003h-287l-399 2003h287z" />
    <glyph glyph-name="bracketright" unicode="]" horiz-adv-x="597" 
d="M467 2230v-2497h-437v273h154v1952h-154v272h437z" />
    <glyph glyph-name="asciicircum" unicode="^" horiz-adv-x="1227" 
d="M759 1999l368 -847h-307l-207 476l-206 -476h-307l368 847h291z" />
    <glyph glyph-name="underscore" unicode="_" horiz-adv-x="1082" 
d="M0 -338v251h1082v-251h-1082z" />
    <glyph glyph-name="grave" unicode="`" horiz-adv-x="836" 
d="M130 2078h258l318 -293h-286l-290 188v105z" />
    <glyph glyph-name="a" unicode="a" horiz-adv-x="1107" 
d="M972 612l95 -632h-336l-55 366h-245l-56 -366h-335l95 629l203 1133h432zM633 628l-80 533l-80 -533h160z" />
    <glyph glyph-name="b" unicode="b" horiz-adv-x="1093" 
d="M130 1742h461q402 -1 402 -381v-260q0 -179 -134 -240q134 -61 134 -240v-261q0 -379 -419 -380h-444v1762zM463 1461v-459h64q54 0 70 5q63 22 63 94v260q0 100 -98 100h-99zM463 720v-459h99q98 0 98 99v261q0 72 -63 93q-17 6 -70 6h-64z" />
    <glyph glyph-name="c" unicode="c" horiz-adv-x="1073" 
d="M973 329q0 -380 -432 -381q-431 0 -431 381v1056q0 380 431 380q432 0 432 -380v-250h-333v250q0 99 -98 100h-2q-97 0 -97 -100v-1056q0 -99 98 -99q99 0 99 99v250h333v-250z" />
    <glyph glyph-name="d" unicode="d" horiz-adv-x="1103" 
d="M130 1742h461q402 -1 402 -381v-1001q0 -379 -419 -380h-444v1762zM463 1461v-1200h99q98 0 98 99v1001q0 100 -98 100h-99z" />
    <glyph glyph-name="e" unicode="e" horiz-adv-x="994" 
d="M130 1742h784v-281h-451v-459h388v-282h-388v-459h451v-281h-784v1762z" />
    <glyph glyph-name="f" unicode="f" horiz-adv-x="974" 
d="M130 1742h784v-281h-451v-459h388v-282h-388v-740h-333v1762z" />
    <glyph glyph-name="g" unicode="g" horiz-adv-x="1083" 
d="M557 998h416v-669q0 -380 -432 -381q-431 0 -431 381v1056q0 380 431 380q432 0 432 -380v-250h-333v250q0 99 -98 100h-2q-97 0 -97 -100v-1056q0 -99 98 -99q99 0 99 99v387h-83v282z" />
    <glyph glyph-name="h" unicode="h" horiz-adv-x="1123" 
d="M130 1742h333v-740h197v740h333v-1762h-333v740h-197v-740h-333v1762z" />
    <glyph glyph-name="i" unicode="i" horiz-adv-x="603" 
d="M135 1742h333v-1762h-333v1762z" />
    <glyph glyph-name="j" unicode="j" horiz-adv-x="1023" 
d="M30 449h333v-120q0 -99 99 -99q98 0 98 99v1409h333v-1409q0 -381 -431 -381q-432 1 -432 381v120z" />
    <glyph glyph-name="k" unicode="k" horiz-adv-x="1116" 
d="M694 861l382 -881h-356l-257 656v-656h-333v1762h333v-656l257 656h356z" />
    <glyph glyph-name="l" unicode="l" horiz-adv-x="954" 
d="M130 -20v1762h333v-1481h451v-281h-784z" />
    <glyph glyph-name="m" unicode="m" horiz-adv-x="1538" 
d="M771 574l308 1168h329v-1762h-321v811l-196 -811h-234l-203 816v-816h-324v1762h329z" />
    <glyph glyph-name="n" unicode="n" horiz-adv-x="1123" 
d="M130 1742h329l222 -868v868h312v-1762h-329l-212 844v-844h-322v1762z" />
    <glyph glyph-name="o" unicode="o" horiz-adv-x="1083" 
d="M973 329q0 -380 -432 -381q-431 0 -431 381v1056q0 380 431 380q432 0 432 -380v-1056zM640 1385q0 99 -98 100h-2q-97 0 -97 -100v-1056q0 -99 98 -99q99 0 99 99v1056z" />
    <glyph glyph-name="p" unicode="p" horiz-adv-x="1049" 
d="M130 1742h437q402 -1 402 -381v-260q0 -279 -287 -361q-69 -20 -198 -20h-21v-740h-333v1762zM463 1461v-459h40q54 0 70 5q63 22 63 94v260q0 100 -98 100h-75z" />
    <glyph glyph-name="q" unicode="q" horiz-adv-x="1083" 
d="M973 294q0 -339 -309 -374q2 -23 309 -25v-243q-283 0 -383 46q-134 60 -137 219q-343 22 -343 377v1056q0 380 431 380q432 0 432 -380v-1056zM640 1350q0 98 -98 99h-2q-97 0 -97 -99v-1056q0 -100 98 -100q99 0 99 100v1056z" />
    <glyph glyph-name="r" unicode="r" horiz-adv-x="1102" 
d="M130 1742h437q402 -1 402 -381v-260q0 -239 -218 -310l321 -811h-363l-228 758h-18v-758h-333v1762zM463 1461v-459h40q54 0 70 5q63 22 63 94v260q0 100 -98 100h-75z" />
    <glyph glyph-name="s" unicode="s" horiz-adv-x="1083" 
d="M110 1385q0 380 431 380q432 0 432 -380v-250h-333v250q0 99 -98 100h-2q-97 0 -97 -100v-156q0 -108 256 -270q274 -171 274 -412v-218q0 -381 -431 -381q-432 1 -432 381v250h333v-250q0 -99 99 -99q98 0 98 99v197q0 117 -256 279q-274 172 -274 418v162z" />
    <glyph glyph-name="t" unicode="t" horiz-adv-x="963" 
d="M913 1742v-281h-265v-1481h-333v1481h-265v281h863z" />
    <glyph glyph-name="u" unicode="u" horiz-adv-x="1103" 
d="M983 329q0 -380 -432 -381q-431 0 -431 381v1409h333v-1409q0 -99 98 -99q99 0 99 99v1409h333v-1409z" />
    <glyph glyph-name="v" unicode="v" horiz-adv-x="1107" 
d="M770 -20h-432l-203 1132l-95 630h336l177 -1381l178 1381h336l-95 -632z" />
    <glyph glyph-name="w" unicode="w" horiz-adv-x="1788" 
d="M1234 446l178 1296h336l-95 -632l-202 -1130h-432l-125 954l-124 -954h-432l-203 1132l-95 630h335l178 -1296l178 1296h325z" />
    <glyph glyph-name="x" unicode="x" horiz-adv-x="1082" 
d="M376 1742l165 -505l164 505h336l-332 -881l332 -881h-336l-164 560l-165 -560h-336l332 881l-332 881h336z" />
    <glyph glyph-name="y" unicode="y" horiz-adv-x="1130" 
d="M392 1742l173 -680l173 680h352l-351 -1002l-7 -18v-742h-333v741l-8 19l-351 1002h352z" />
    <glyph glyph-name="z" unicode="z" horiz-adv-x="930" 
d="M833 1573l-378 -1312h395v-281h-770v169l378 1312h-365v281h740v-169z" />
    <glyph glyph-name="braceleft" unicode="{" horiz-adv-x="595" 
d="M565 -267q-444 5 -444 433v566q0 111 -111 113v272q111 3 111 114v567q0 427 444 432v-271q-111 -3 -111 -115v-566q0 -205 -74 -296q74 -92 74 -297v-566q0 -111 111 -114v-272z" />
    <glyph glyph-name="bar" unicode="|" horiz-adv-x="562" 
d="M140 2310h282v-2657h-282v2657z" />
    <glyph glyph-name="braceright" unicode="}" horiz-adv-x="595" 
d="M30 5q111 3 111 114v566q0 205 74 297q-74 91 -74 296v566q0 112 -111 115v271q444 -5 444 -432v-567q0 -111 111 -114v-272q-111 -2 -111 -113v-566q0 -428 -444 -433v272z" />
    <glyph glyph-name="asciitilde" unicode="~" horiz-adv-x="1163" 
d="M307 800l-207 135l63 97q106 165 254 165h11q97 -4 238 -110q63 -47 97 -47q17 0 29 15l79 99l192 -153l-73 -92q-97 -123 -225 -123h-13q-97 4 -238 111q-74 56 -85 58h-3q-19 0 -51 -49z" />
    <glyph glyph-name="exclamdown" unicode="&#xa1;" horiz-adv-x="565" 
d="M120 -253l21 1472h333l21 -1472h-375zM495 1384h-375v365h375v-365z" />
    <glyph glyph-name="cent" unicode="&#xa2;" horiz-adv-x="1135" 
d="M459 775l196 640q-9 75 -97 76q-99 0 -99 -98v-618zM493 252q14 -13 64 -13q99 0 99 97v253h333v-253q0 -383 -432 -383q-100 0 -151 14l-97 -315l-189 12l116 384q-110 88 -110 288v1057q0 384 431 384q134 0 199 -27l69 223l190 -12l-98 -320q72 -87 72 -248v-252h-224
z" />
    <glyph glyph-name="sterling" unicode="&#xa3;" horiz-adv-x="1176" 
d="M586 898v-346q0 -182 -46 -253h497v-319h-977v319h94q99 0 99 114v485h-193v198h193v485q0 433 431 433q432 0 432 -433v-283h-333v283q0 113 -98 113h-2q-97 0 -97 -113v-485h331v-198h-331z" />
    <glyph glyph-name="currency" unicode="&#xa4;" horiz-adv-x="1462" 
d="M1163 848q0 -58 -6 -100l175 -174l-202 -203l-112 113q-85 -68 -287 -68t-286 67l-112 -112l-203 203l175 174q-5 41 -5 100v267q0 49 3 83l-173 173l203 202l101 -101q84 76 297 76t298 -76l101 101l202 -202l-173 -173q4 -34 4 -83v-267zM830 1115q0 112 -98 113h-2
q-97 0 -97 -113v-267q0 -113 98 -113q99 0 99 113v267z" />
    <glyph glyph-name="yen" unicode="&#xa5;" horiz-adv-x="1250" 
d="M404 996l-304 986h352l173 -683l173 683h352l-304 -986h208v-198h-262v-119h262v-199h-262v-500h-333v500h-262v199h262v119h-262v198h207z" />
    <glyph glyph-name="brokenbar" unicode="&#xa6;" horiz-adv-x="562" 
d="M140 1749h282v-783h-282v783zM140 804h282v-824h-282v824z" />
    <glyph glyph-name="section" unicode="&#xa7;" horiz-adv-x="1103" 
d="M554 -347q-411 0 -411 400v126h333v-126q0 -103 88 -103q85 0 85 103q0 182 -254 336q-275 165 -275 519q0 285 168 351q-168 112 -168 379q0 376 428 376q411 0 411 -376v-120h-333v120q0 95 -87 95q-86 0 -86 -95q0 -170 252 -313q278 -157 278 -489q0 -300 -212 -348
q212 -130 212 -435q0 -400 -429 -400zM653 896q0 123 -108 124h-2q-107 0 -107 -124v-41q0 -124 108 -124q109 0 109 124v41z" />
    <glyph glyph-name="dieresis" unicode="&#xa8;" horiz-adv-x="949" 
d="M130 2068h292v-282h-292v282zM526 2068h293v-282h-293v282z" />
    <glyph glyph-name="copyright" unicode="&#xa9;" horiz-adv-x="1513" 
d="M1393 608q0 -627 -637 -627q-636 0 -636 615v801q0 628 636 628q637 0 637 -615v-802zM1172 1426q0 408 -415 408q-416 0 -416 -421v-833q0 -408 415 -408q416 0 416 420v834zM1054 657q0 -295 -296 -295q-295 0 -295 295v651q0 294 295 294q296 0 296 -294v-97h-239v97
q0 68 -56 69q-58 0 -58 -69v-651q0 -69 57 -69t57 69v96h239v-96z" />
    <glyph glyph-name="ordfeminine" unicode="&#xaa;" horiz-adv-x="818" 
d="M694 1296l65 -391h-240l-36 221h-147l-37 -221h-239l65 390l136 687h298zM452 1313l-43 258l-43 -258h86zM71 501v233h669v-233h-669z" />
    <glyph glyph-name="guillemotleft" unicode="&#xab;" horiz-adv-x="1305" 
d="M744 1171l-215 -182l215 -176v-382l-614 571l614 560v-391zM1233 1171l-215 -182l215 -176v-382l-614 571l614 560v-391z" />
    <glyph glyph-name="logicalnot" unicode="&#xac;" horiz-adv-x="1117" 
d="M130 845v273h857v-560h-282v287h-575z" />
    <glyph glyph-name="registered" unicode="&#xae;" horiz-adv-x="1513" 
d="M1393 608q0 -627 -637 -627q-636 0 -636 615v801q0 628 636 628q637 0 637 -615v-802zM1172 1426q0 408 -415 408q-416 0 -416 -421v-833q0 -408 415 -408q416 0 416 420v834zM487 1590h283q260 0 260 -247v-168q0 -155 -141 -201l208 -525h-235l-148 491h-12v-491h-215
v1141zM702 1408v-297h26q35 0 45 3q41 14 41 61v168q0 65 -63 65h-49z" />
    <glyph glyph-name="macron" unicode="&#xaf;" horiz-adv-x="1258" 
d="M0 1732v251h1258v-251h-1258z" />
    <glyph glyph-name="degree" unicode="&#xb0;" horiz-adv-x="927" 
d="M797 1741q0 -329 -334 -329q-333 0 -333 329q0 328 333 328q334 0 334 -328zM463 1846q-100 0 -100 -105q0 -106 100 -106q101 0 101 106q0 105 -101 105z" />
    <glyph glyph-name="plusminus" unicode="&#xb1;" horiz-adv-x="1097" 
d="M408 845h-288v273h288v287h282v-287h287v-273h-287v-287h-282v287zM975 392v-252h-855v252h855z" />
    <glyph glyph-name="uni00B2" unicode="&#xb2;" horiz-adv-x="724" 
d="M100 1077q0 163 163 280q145 104 146 172v224q0 58 -46 58h-1q-47 0 -47 -58v-173h-215v173q0 261 262 261t262 -261v-228q0 -167 -164 -284q-145 -104 -145 -178v-49h309v-203h-524v266z" />
    <glyph glyph-name="uni00B3" unicode="&#xb3;" horiz-adv-x="729" 
d="M414 1261q0 52 -13 57q-9 4 -32 4h-82v204h95q15 0 20 3q12 7 12 55v172q0 52 -13 57q-9 4 -34 4q-6 0 -15 -1q-37 -1 -37 -60v-174h-215v175q0 179 109 235q74 38 152 38q72 0 147 -33q121 -52 121 -240v-174q0 -125 -70 -161q70 -36 70 -161v-210q0 -160 -87 -221
q-55 -40 -169 -43h-14q-100 0 -157 34q-102 58 -102 230v175h215v-176q0 -60 49 -60q50 0 50 60v211z" />
    <glyph glyph-name="acute" unicode="&#xb4;" horiz-adv-x="836" 
d="M706 1973l-290 -188h-286l318 293h258v-105z" />
    <glyph glyph-name="mu" unicode="&#xb5;" horiz-adv-x="1113" 
d="M463 380q0 -112 98 -112q99 0 99 113v1274h333v-1274q0 -390 -341 -428q-20 -2 -40 -2q-102 0 -149 31v-329h-333v2002h333v-1275z" />
    <glyph glyph-name="paragraph" unicode="&#xb6;" horiz-adv-x="1220" 
d="M1090 1983v-2003h-251v1762h-173v-1762h-251v1021q-179 0 -238 44q-77 59 -77 265v354q0 207 79 269q62 50 261 50h650z" />
    <glyph glyph-name="periodcentered" unicode="&#xb7;" horiz-adv-x="508" 
d="M119.997 1136.24h318.741v-310.241h-318.741v310.241z" />
    <glyph glyph-name="periodcentered" unicode="&#x2219;" horiz-adv-x="508" 
d="M119.997 1136.24h318.741v-310.241h-318.741v310.241z" />
    <glyph glyph-name="cedilla" unicode="&#xb8;" horiz-adv-x="687" 
d="M370 -39q-3 -2 -3 -3q0 -4 29 -4q41 0 74 -25q36 -26 36 -85v-99q0 -103 -125 -113q-16 -2 -37 -2q-11 0 -22 1q-142 4 -142 114v49q90 -45 136 -45q50 0 51 51v2q0 82 -135 82q-21 0 -45 -2l29 139h175z" />
    <glyph glyph-name="uni00B9" unicode="&#xb9;" horiz-adv-x="1123" 
d="M496 1982v-971h153v-201h-519v201h153v770h-153v201h366z" />
    <glyph glyph-name="ordmasculine" unicode="&#xba;" horiz-adv-x="827" 
d="M707 1110q0 -238 -294 -238q-293 0 -293 238v634q0 238 293 238q294 0 294 -238v-634zM470 1744q0 50 -56 51q-57 0 -57 -51v-634q0 -51 56 -51q57 0 57 51v634zM130 486v215h566v-215h-566z" />
    <glyph glyph-name="guillemotright" unicode="&#xbb;" horiz-adv-x="1305" 
d="M130 1562l614 -560l-614 -571v382l215 176l-215 182v391zM619 1562l614 -560l-614 -571v382l215 176l-215 182v391z" />
    <glyph glyph-name="onequarter" unicode="&#xbc;" horiz-adv-x="1659" 
d="M1496 1145v-689h63v-200h-63v-276h-212v276h-329v165l291 724h250zM1174 456h110v279zM1395 1983l-736 -2003h-228l737 2003h227zM486 1982v-971h153v-201h-519v201h153v770h-153v201h366z" />
    <glyph glyph-name="onehalf" unicode="&#xbd;" horiz-adv-x="1735" 
d="M1335 1983l-736 -2003h-228l737 2003h227zM426 1982v-971h153v-201h-519v201h153v770h-153v201h366zM1111 246q0 163 163 280q145 104 146 172v224q0 58 -46 58h-1q-47 0 -47 -58v-173h-215v173q0 261 262 261t262 -261v-228q0 -167 -164 -284q-145 -104 -145 -178v-49
h309v-203h-524v266z" />
    <glyph glyph-name="threequarters" unicode="&#xbe;" horiz-adv-x="1599" 
d="M1436 1145v-689h63v-200h-63v-276h-212v276h-329v165l291 724h250zM1114 456h110v279zM1335 1983l-736 -2003h-228l737 2003h227zM414 1261q0 52 -13 57q-9 4 -32 4h-82v204h95q15 0 20 3q12 7 12 55v172q0 52 -13 57q-9 4 -34 4q-6 0 -15 -1q-37 -1 -37 -60v-174h-215
v175q0 179 109 235q74 38 152 38q72 0 147 -33q121 -52 121 -240v-174q0 -125 -70 -161q70 -36 70 -161v-210q0 -160 -87 -221q-55 -40 -169 -43h-14q-100 0 -157 34q-102 58 -102 230v175h215v-176q0 -60 49 -60q50 0 50 60v211z" />
    <glyph glyph-name="questiondown" unicode="&#xbf;" 
d="M867 1384h-375v365h375v-365zM120 345q0 256 206 461q192 191 192 331v65h333v-89q0 -252 -206 -456q-192 -190 -192 -319v-190q0 -113 97 -113h2q98 0 98 113v283h333v-283q0 -433 -432 -433q-431 0 -431 433v197z" />
    <glyph glyph-name="Agrave" unicode="&#xc0;" horiz-adv-x="1091" 
d="M992 698l95 -718h-336l-55 416h-245l-56 -416h-335l95 715l203 1287h432zM653 716l-80 606l-80 -606h160zM218 2311h258l318 -293h-286l-290 188v105z" />
    <glyph glyph-name="Aacute" unicode="&#xc1;" horiz-adv-x="1091" 
d="M992 698l95 -718h-336l-55 416h-245l-56 -416h-335l95 715l203 1287h432zM653 716l-80 606l-80 -606h160zM929 2206l-290 -188h-286l318 293h258v-105z" />
    <glyph glyph-name="Acircumflex" unicode="&#xc2;" horiz-adv-x="1091" 
d="M992 698l95 -718h-336l-55 416h-245l-56 -416h-335l95 715l203 1287h432zM653 716l-80 606l-80 -606h160zM133 2019l296 292h288l299 -292h-316l-127 87l-126 -87h-314z" />
    <glyph glyph-name="Atilde" unicode="&#xc3;" horiz-adv-x="1091" 
d="M992 698l95 -718h-336l-55 416h-245l-56 -416h-335l95 715l203 1287h432zM653 716l-80 606l-80 -606h160zM347 1990l-148 81l43 86q73 147 196 154h8q75 0 188 -70q44 -28 69 -28q13 0 21 12l55 89l169 -112l-50 -82q-70 -112 -179 -118h-8q-75 0 -186 70q-61 38 -66 39
h-2q-11 0 -110 -121z" />
    <glyph glyph-name="Adieresis" unicode="&#xc4;" horiz-adv-x="1091" 
d="M992 698l95 -718h-336l-55 416h-245l-56 -416h-335l95 715l203 1287h432zM653 716l-80 606l-80 -606h160zM229 2301h292v-282h-292v282zM625 2301h293v-282h-293v282z" />
    <glyph glyph-name="Aring" unicode="&#xc5;" horiz-adv-x="1147" 
d="M653 716l-80 606l-80 -606h160zM573 2154q-55 0 -55 -60q0 -61 55 -61q56 0 56 61q0 60 -56 60zM780 1982h10l202 -1284l95 -718h-336l-55 416h-245l-56 -416h-335l95 715l203 1287h9q-17 23 -17 112q0 218 223 218q224 0 224 -218q0 -89 -17 -112z" />
    <glyph glyph-name="AE" unicode="&#xc6;" horiz-adv-x="1531" 
d="M554 396h-103l-56 -416h-335l95 715l203 1287h980v-319h-451v-522h388v-320h-388v-522h451v-319h-784v416zM554 716v750l-61 -750h61z" />
    <glyph glyph-name="Ccedilla" unicode="&#xc7;" horiz-adv-x="1093" 
d="M452 -46q-332 33 -332 427v1200q0 432 431 432q432 0 432 -432v-284h-333v284q0 112 -98 113h-2q-97 0 -97 -113v-1200q0 -113 98 -113q99 0 99 113v284h333v-284q0 -407 -368 -431q-2 -6 -2 -10q0 -12 15 -12q8 0 22 4q20 6 37 6q19 0 33 -9q36 -26 36 -85v-99
q0 -103 -126 -113q-15 -2 -37 -2q-10 0 -22 1q-141 4 -141 114v49l138 -3q25 -23 40 -23q21 0 23 43v10q0 31 -12 31q-11 0 -32 -27l-152 47z" />
    <glyph glyph-name="Egrave" unicode="&#xc8;" horiz-adv-x="944" 
d="M130 1982h784v-319h-451v-522h388v-320h-388v-522h451v-319h-784v2002zM166 2311h258l318 -293h-286l-290 188v105z" />
    <glyph glyph-name="Eacute" unicode="&#xc9;" horiz-adv-x="944" 
d="M130 1982h784v-319h-451v-522h388v-320h-388v-522h451v-319h-784v2002zM878 2206l-290 -188h-286l318 293h258v-105z" />
    <glyph glyph-name="Ecircumflex" unicode="&#xca;" horiz-adv-x="944" 
d="M157 1982h784v-319h-451v-522h388v-320h-388v-522h451v-319h-784v2002zM108 2019l296 292h288l299 -292h-316l-127 87l-126 -87h-314z" />
    <glyph glyph-name="Edieresis" unicode="&#xcb;" horiz-adv-x="944" 
d="M130 1982h784v-319h-451v-522h388v-320h-388v-522h451v-319h-784v2002zM178 2301h292v-282h-292v282zM574 2301h293v-282h-293v282z" />
    <glyph glyph-name="Igrave" unicode="&#xcc;" horiz-adv-x="553" 
d="M135 1982h333v-2002h-333v2002zM-54 2311h258l318 -293h-286l-290 188v105z" />
    <glyph glyph-name="Iacute" unicode="&#xcd;" horiz-adv-x="553" 
d="M165 1982h333v-2002h-333v2002zM687 2206l-290 -188h-286l318 293h258v-105z" />
    <glyph glyph-name="Icircumflex" unicode="&#xce;" horiz-adv-x="553" 
d="M163 1982h333v-2002h-333v2002zM-112 2019l296 292h288l299 -292h-316l-127 87l-126 -87h-314z" />
    <glyph glyph-name="Idieresis" unicode="&#xcf;" horiz-adv-x="553" 
d="M135 1982h333v-2002h-333v2002zM-43 2301h292v-282h-292v282zM353 2301h293v-282h-293v282z" />
    <glyph glyph-name="Eth" unicode="&#xd0;" horiz-adv-x="1165" 
d="M515 856v-557h99q98 0 98 113v1137q0 114 -98 114h-99v-556h98v-251h-98zM182 1107v875l461 -1q402 0 402 -432v-1137q0 -431 -402 -431q-5 0 -17 -1h-444v876h-124v251h124z" />
    <glyph glyph-name="Ntilde" unicode="&#xd1;" horiz-adv-x="1073" 
d="M130 1982h329l222 -944v939l312 5v-2002h-329l-212 907v-907h-322v2002zM331 1997l-144 74l43 86q73 147 196 154h8q75 0 188 -70q44 -28 69 -28q13 0 21 12l55 89l169 -112l-50 -82q-70 -112 -179 -118h-8q-75 0 -186 70q-61 38 -66 39h-2q-11 0 -114 -114z" />
    <glyph glyph-name="Ograve" unicode="&#xd2;" 
d="M983 381q0 -432 -432 -433q-431 0 -431 433v1200q0 432 431 432q432 0 432 -432v-1200zM650 1581q0 112 -98 113h-2q-97 0 -97 -113v-1200q0 -113 98 -113q99 0 99 113v1200zM196 2311h258l318 -293h-286l-290 188v105z" />
    <glyph glyph-name="Oacute" unicode="&#xd3;" 
d="M983 381q0 -432 -432 -433q-431 0 -431 433v1200q0 432 431 432q432 0 432 -432v-1200zM650 1581q0 112 -98 113h-2q-97 0 -97 -113v-1200q0 -113 98 -113q99 0 99 113v1200zM907 2206l-290 -188h-286l318 293h258v-105z" />
    <glyph glyph-name="Ocircumflex" unicode="&#xd4;" 
d="M992 381q0 -432 -432 -433q-431 0 -431 433v1200q0 432 431 432q432 0 432 -432v-1200zM659 1581q0 112 -98 113h-2q-97 0 -97 -113v-1200q0 -113 98 -113q99 0 99 113v1200zM120 2019l296 292h288l299 -292h-316l-127 87l-126 -87h-314z" />
    <glyph glyph-name="Otilde" unicode="&#xd5;" 
d="M983 381q0 -432 -432 -433q-431 0 -431 433v1200q0 432 431 432q432 0 432 -432v-1200zM650 1581q0 112 -98 113h-2q-97 0 -97 -113v-1200q0 -113 98 -113q99 0 99 113v1200zM312 1997l-135 74l43 86q73 147 196 154h8q75 0 188 -70q44 -28 69 -28q13 0 21 12l55 89
l169 -112l-50 -82q-78 -100 -182 -101q-3 -1 -5 -1q-101 0 -186 54q-61 38 -66 39h-2q-11 0 -123 -114z" />
    <glyph glyph-name="Odieresis" unicode="&#xd6;" 
d="M983 381q0 -432 -432 -433q-431 0 -431 433v1200q0 432 431 432q432 0 432 -432v-1200zM650 1581q0 112 -98 113h-2q-97 0 -97 -113v-1200q0 -113 98 -113q99 0 99 113v1200zM207 2301h292v-282h-292v282zM603 2301h293v-282h-293v282z" />
    <glyph glyph-name="multiply" unicode="&#xd7;" horiz-adv-x="1111" 
d="M556 785l-203 -203l-197 197l204 203l-203 203l196 196l203 -203l203 203l196 -197l-203 -202l203 -203l-196 -196z" />
    <glyph glyph-name="Oslash" unicode="&#xd8;" horiz-adv-x="1103" 
d="M469 305q19 -37 82 -37q99 0 99 113v670zM453 1027l158 654q-15 13 -59 13h-2q-97 0 -97 -113v-554zM860 1917q123 -100 123 -336v-1200q0 -432 -432 -433q-110 0 -163 19l-47 -193h-191l70 292q-100 101 -100 315v1200q0 432 431 432q92 0 137 -13l29 121h192z" />
    <glyph glyph-name="Ugrave" unicode="&#xd9;" 
d="M983 381q0 -432 -432 -433q-431 0 -431 433v1601h333v-1601q0 -113 98 -113q99 0 99 113v1601h333v-1601zM196 2311h258l318 -293h-286l-290 188v105z" />
    <glyph glyph-name="Uacute" unicode="&#xda;" 
d="M983 381q0 -432 -432 -433q-431 0 -431 433v1601h333v-1601q0 -113 98 -113q99 0 99 113v1601h333v-1601zM907 2206l-290 -188h-286l318 293h258v-105z" />
    <glyph glyph-name="Ucircumflex" unicode="&#xdb;" 
d="M992 381q0 -432 -432 -433q-431 0 -431 433v1601h333v-1601q0 -113 98 -113q99 0 99 113v1601h333v-1601zM120 2019l296 292h288l299 -292h-316l-127 87l-126 -87h-314z" />
    <glyph glyph-name="Udieresis" unicode="&#xdc;" 
d="M983 381q0 -432 -432 -433q-431 0 -431 433v1601h333v-1601q0 -113 98 -113q99 0 99 113v1601h333v-1601zM207 2301h292v-282h-292v282zM603 2301h293v-282h-293v282z" />
    <glyph glyph-name="Yacute" unicode="&#xdd;" horiz-adv-x="1106" 
d="M412 1982l173 -773l173 773h352l-351 -1138l-7 -21v-843h-333v842l-8 22l-351 1138h352zM941 2206l-290 -188h-286l318 293h258v-105z" />
    <glyph glyph-name="Thorn" unicode="&#xde;" horiz-adv-x="1068" 
d="M463 1655h67q7 0 19 -1h18q401 0 401 -432v-295q0 -317 -286 -411q-70 -22 -199 -22h-20v-841h-333v2329h333v-327zM463 1336v-523h39q53 0 71 7q62 25 62 107v295q0 114 -98 114h-74z" />
    <glyph glyph-name="germandbls" unicode="&#xdf;" horiz-adv-x="1103" 
d="M993 1254q0 -204 -135 -273q135 -68 135 -273v-508q0 -431 -401 -431l-54 -2v320q122 0 122 113v508q0 82 -63 107q-18 7 -71 7h-63v-842h-333v1570q0 432 431 432q432 0 432 -432v-296zM463 1141h63q53 0 71 7q63 24 63 106v296q0 112 -98 113h-2q-97 0 -97 -113v-409z
" />
    <glyph glyph-name="agrave" unicode="&#xe0;" horiz-adv-x="1091" 
d="M992 612l95 -632h-336l-55 366h-245l-56 -366h-335l95 629l203 1133h432zM653 628l-80 533l-80 -533h160zM218 2078h258l318 -293h-286l-290 188v105z" />
    <glyph glyph-name="aacute" unicode="&#xe1;" horiz-adv-x="1091" 
d="M992 612l95 -632h-336l-55 366h-245l-56 -366h-335l95 629l203 1133h432zM653 628l-80 533l-80 -533h160zM929 1973l-290 -188h-286l318 293h258v-105z" />
    <glyph glyph-name="acircumflex" unicode="&#xe2;" horiz-adv-x="1091" 
d="M992 612l95 -632h-336l-55 366h-245l-56 -366h-335l95 629l203 1133h432zM653 628l-80 533l-80 -533h160zM133 1786l296 292h288l299 -292h-316l-127 87l-126 -87h-314z" />
    <glyph glyph-name="atilde" unicode="&#xe3;" horiz-adv-x="1091" 
d="M992 616l95 -636h-336l-55 368h-245l-56 -368h-335l95 633l203 1136h432zM653 634l-80 531l-80 -531h160zM373 1759l-174 79l43 86q73 147 196 154h8q75 0 188 -70q44 -28 69 -28q13 0 21 12l55 89l169 -112l-50 -82q-70 -112 -179 -118h-8q-75 0 -186 70q-61 38 -66 39
h-2q-11 0 -84 -119z" />
    <glyph glyph-name="adieresis" unicode="&#xe4;" horiz-adv-x="1091" 
d="M992 612l95 -632h-336l-55 366h-245l-56 -366h-335l95 629l203 1133h432zM653 628l-80 533l-80 -533h160zM229 2068h292v-282h-292v282zM625 2068h293v-282h-293v282z" />
    <glyph glyph-name="aring" unicode="&#xe5;" horiz-adv-x="1147" 
d="M653 634l-80 531l-80 -531h160zM573 1921q-55 0 -55 -60q0 -61 55 -61q56 0 56 61q0 60 -56 60zM780 1749h10l202 -1133l95 -636h-336l-55 368h-245l-56 -368h-335l95 633l203 1136h9q-17 23 -17 112q0 218 223 218q224 0 224 -218q0 -89 -17 -112z" />
    <glyph glyph-name="ae" unicode="&#xe6;" horiz-adv-x="1621" 
d="M555 348h-104l-56 -368h-335l95 633l203 1136h981v-286h-451v-455h388v-286h-388v-456h451v-286h-784v368zM555 634v650l-62 -650h62z" />
    <glyph glyph-name="ccedilla" unicode="&#xe7;" horiz-adv-x="1093" 
d="M414 -35q-294 44 -294 371v1057q0 384 431 384q432 0 432 -384v-252h-333v252q0 97 -98 98q-99 0 -99 -98v-1057q0 -97 98 -97q99 0 99 97v253h333v-253q0 -380 -407 -383l-37 -43q41 28 82 26q94 -14 94 -116v-47q0 -143 -162 -143q-164 1 -164 115v49l130 -1
q-1 -52 43 -52q40 0 39.5 56.5t-22 57t-33.5 -29.5l-159 27z" />
    <glyph glyph-name="egrave" unicode="&#xe8;" horiz-adv-x="924" 
d="M130 1742h784v-281h-451v-459h388v-282h-388v-459h451v-281h-784v1762zM166 2078h258l318 -293h-286l-290 188v105z" />
    <glyph glyph-name="eacute" unicode="&#xe9;" horiz-adv-x="924" 
d="M130 1742h784v-281h-451v-459h388v-282h-388v-459h451v-281h-784v1762zM878 1973l-290 -188h-286l318 293h258v-105z" />
    <glyph glyph-name="ecircumflex" unicode="&#xea;" horiz-adv-x="924" 
d="M157 1742h784v-281h-451v-459h388v-282h-388v-459h451v-281h-784v1762zM108 1786l296 292h288l299 -292h-316l-127 87l-126 -87h-314z" />
    <glyph glyph-name="edieresis" unicode="&#xeb;" horiz-adv-x="924" 
d="M130 1742h784v-281h-451v-459h388v-282h-388v-459h451v-281h-784v1762zM178 2068h292v-282h-292v282zM574 2068h293v-282h-293v282z" />
    <glyph glyph-name="igrave" unicode="&#xec;" horiz-adv-x="514" 
d="M135 1749h333v-1769h-333v1769zM-54 2078h258l318 -293h-286l-290 188v105z" />
    <glyph glyph-name="iacute" unicode="&#xed;" horiz-adv-x="514" 
d="M165 1749h333v-1769h-333v1769zM687 1973l-290 -188h-286l318 293h258v-105z" />
    <glyph glyph-name="icircumflex" unicode="&#xee;" horiz-adv-x="514" 
d="M163 1749h333v-1769h-333v1769zM-112 1786l296 292h288l299 -292h-316l-127 87l-126 -87h-314z" />
    <glyph glyph-name="idieresis" unicode="&#xef;" horiz-adv-x="514" 
d="M135 1749h333v-1769h-333v1769zM-43 2068h292v-282h-292v282zM353 2068h293v-282h-293v282z" />
    <glyph glyph-name="eth" unicode="&#xf0;" horiz-adv-x="1103" 
d="M361 1297l-167 198l195 164q-37 23 -167 73l81 259q233 -68 324 -133l172 145l166 -198l-150 -126q168 -223 168 -627v-639q0 -433 -431 -433q-432 0 -432 433v365q0 412 376 412q115 0 154 -31q0 195 -77 317zM453 413q0 -113 99 -113q98 0 98 113v365q0 110 -76 113
q-14 1 -26 1q-47 0 -64 -8q-31 -13 -31 -106v-365z" />
    <glyph glyph-name="ntilde" unicode="&#xf1;" horiz-adv-x="1073" 
d="M130 1749h328l223 -834v830l312 4v-1769h-328l-213 802v-802h-322v1769zM361 1753l-174 85l43 86q73 147 196 154h8q75 0 188 -70q44 -28 69 -28q13 0 21 12l55 89l169 -112l-50 -82q-70 -112 -179 -118h-8q-75 0 -186 70q-61 38 -66 39h-2q-11 0 -32 -41z" />
    <glyph glyph-name="ograve" unicode="&#xf2;" 
d="M983 329q0 -380 -432 -381q-431 0 -431 381v1056q0 380 431 380q432 0 432 -380v-1056zM650 1385q0 99 -98 100h-2q-97 0 -97 -100v-1056q0 -99 98 -99q99 0 99 99v1056zM196 2078h258l318 -293h-286l-290 188v105z" />
    <glyph glyph-name="oacute" unicode="&#xf3;" 
d="M983 329q0 -380 -432 -381q-431 0 -431 381v1056q0 380 431 380q432 0 432 -380v-1056zM650 1385q0 99 -98 100h-2q-97 0 -97 -100v-1056q0 -99 98 -99q99 0 99 99v1056zM907 1973l-290 -188h-286l318 293h258v-105z" />
    <glyph glyph-name="ocircumflex" unicode="&#xf4;" 
d="M992 329q0 -380 -432 -381q-431 0 -431 381v1056q0 380 431 380q432 0 432 -380v-1056zM659 1385q0 99 -98 100h-2q-97 0 -97 -100v-1056q0 -99 98 -99q99 0 99 99v1056zM120 1786l296 292h288l299 -292h-316l-127 87l-126 -87h-314z" />
    <glyph glyph-name="otilde" unicode="&#xf5;" 
d="M983 336q0 -383 -432 -383q-431 0 -431 383v1057q0 384 431 384q432 0 432 -384v-1057zM650 1393q0 97 -98 98q-99 0 -99 -98v-1057q0 -97 98 -97q99 0 99 97v1057zM333 1760l-156 78l43 86q73 147 196 154h8q75 0 188 -70q44 -28 69 -28q13 0 21 12l55 89l169 -112
l-50 -82q-70 -112 -179 -118h-8q-75 0 -186 70q-61 38 -66 39h-2q-11 0 -102 -118z" />
    <glyph glyph-name="odieresis" unicode="&#xf6;" 
d="M983 329q0 -380 -432 -381q-431 0 -431 381v1056q0 380 431 380q432 0 432 -380v-1056zM650 1385q0 99 -98 100h-2q-97 0 -97 -100v-1056q0 -99 98 -99q99 0 99 99v1056zM207 2068h292v-282h-292v282zM603 2068h293v-282h-293v282z" />
    <glyph glyph-name="divide" unicode="&#xf7;" horiz-adv-x="1045" 
d="M975 1120v-274h-855v274h855zM360 1668h374v-364h-374v364zM360 664h374v-365h-374v365z" />
    <glyph glyph-name="oslash" unicode="&#xf8;" horiz-adv-x="1115" 
d="M492 253q15 -14 65 -14q99 0 99 97v453zM459 778l196 640q-10 72 -97 73q-99 0 -99 -98v-615zM917 1642q72 -87 72 -249v-1057q0 -383 -432 -383q-100 0 -152 14l-97 -315l-189 12l117 384q-110 89 -110 288v1057q0 384 431 384q134 0 199 -27l68 223l190 -12z" />
    <glyph glyph-name="ugrave" unicode="&#xf9;" 
d="M983 329q0 -380 -432 -381q-431 0 -431 381v1409h333v-1409q0 -99 98 -99q99 0 99 99v1409h333v-1409zM196 2078h258l318 -293h-286l-290 188v105z" />
    <glyph glyph-name="uacute" unicode="&#xfa;" 
d="M983 329q0 -380 -432 -381q-431 0 -431 381v1409h333v-1409q0 -99 98 -99q99 0 99 99v1409h333v-1409zM907 1973l-290 -188h-286l318 293h258v-105z" />
    <glyph glyph-name="ucircumflex" unicode="&#xfb;" 
d="M992 329q0 -380 -432 -381q-431 0 -431 381v1409h333v-1409q0 -99 98 -99q99 0 99 99v1409h333v-1409zM120 1786l296 292h288l299 -292h-316l-127 87l-126 -87h-314z" />
    <glyph glyph-name="udieresis" unicode="&#xfc;" 
d="M983 329q0 -380 -432 -381q-431 0 -431 381v1409h333v-1409q0 -99 98 -99q99 0 99 99v1409h333v-1409zM207 2068h292v-282h-292v282zM603 2068h293v-282h-293v282z" />
    <glyph glyph-name="yacute" unicode="&#xfd;" horiz-adv-x="1106" 
d="M412 1742l173 -680l173 680h352l-351 -1002l-7 -18v-742h-333v741l-8 19l-351 1002h352zM942 1973l-290 -188h-286l318 293h258v-105z" />
    <glyph glyph-name="thorn" unicode="&#xfe;" horiz-adv-x="1060" 
d="M463 1655h67q7 0 19 -1h18q401 0 401 -432v-295q0 -317 -286 -411q-70 -22 -199 -22h-20v-841h-333v2329h333v-327zM463 1336v-523h39q53 0 71 7q62 25 62 107v295q0 114 -98 114h-74z" />
    <glyph glyph-name="ydieresis" unicode="&#xff;" horiz-adv-x="1106" 
d="M412 1742l173 -680l173 680h352l-351 -1002l-7 -18v-742h-333v741l-8 19l-351 1002h352zM242 2068h292v-282h-292v282zM638 2068h293v-282h-293v282z" />
    <glyph glyph-name="dotlessi" unicode="&#x131;" horiz-adv-x="564" 
d="M135 1749h333v-1769h-333v1769z" />
    <glyph glyph-name="circumflex" unicode="&#x2c6;" horiz-adv-x="1214" 
d="M166 1786l296 292h288l299 -292h-316l-127 87l-126 -87h-314z" />
    <glyph glyph-name="caron" unicode="&#x2c7;" horiz-adv-x="1214" 
d="M480 2078l126 -87l127 87h316l-299 -292h-288l-296 292h314z" />
    <glyph glyph-name="uni02C9" unicode="&#x2c9;" horiz-adv-x="949" 
d="M130 2056h689v-271h-689v271z" />
    <glyph glyph-name="breve" unicode="&#x2d8;" horiz-adv-x="1096" 
d="M967 2075q-147 -298 -430 -298h-8q-288 4 -399 298h268q31 -108 148 -108h1q119 0 149 108h271z" />
    <glyph glyph-name="dotaccent" unicode="&#x2d9;" horiz-adv-x="553" 
d="M130 2073h293v-282h-293v282z" />
    <glyph glyph-name="ring" unicode="&#x2da;" horiz-adv-x="707" 
d="M577 1861q0 -219 -224 -219q-223 0 -223 219q0 218 223 218q224 0 224 -218zM353 1921q-55 0 -55 -60q0 -61 55 -61q56 0 56 61q0 60 -56 60z" />
    <glyph glyph-name="tilde" unicode="&#x2dc;" horiz-adv-x="1008" 
d="M310 1743l-180 95l43 86q73 147 196 154h8q75 0 188 -70q44 -28 69 -28q13 0 21 12l55 89l169 -112l-50 -82q-70 -112 -179 -118h-8q-75 0 -186 70q-61 38 -66 39h-2q-11 0 -32 -41z" />
    <glyph glyph-name="endash" unicode="&#x2013;" horiz-adv-x="1222" 
d="M50 821v273h1110v-273h-1110z" />
    <glyph glyph-name="emdash" unicode="&#x2014;" horiz-adv-x="2098" 
d="M50 821v273h2013v-273h-2013z" />
    <glyph glyph-name="quoteleft" unicode="&#x2018;" horiz-adv-x="607" 
d="M530 1291h-400v310l112 382h233l-58 -327h113v-365z" />
    <glyph glyph-name="quoteright" unicode="&#x2019;" horiz-adv-x="660" 
d="M130 1983h400v-310l-112 -382h-233l58 327h-113v365z" />
    <glyph glyph-name="quotesinglbase" unicode="&#x201a;" horiz-adv-x="607" 
d="M120 345h401v-309l-113 -383h-232l58 327h-114v365z" />
    <glyph glyph-name="quotedblleft" unicode="&#x201c;" horiz-adv-x="1047" 
d="M530 1291h-400v310l112 382h233l-58 -327h113v-365zM1020 1291h-400v310l112 382h233l-58 -327h113v-365z" />
    <glyph glyph-name="quotedblright" unicode="&#x201d;" horiz-adv-x="1100" 
d="M130 1983h400v-310l-112 -382h-233l58 327h-113v365zM620 1983h400v-310l-112 -382h-233l58 327h-113v365z" />
    <glyph glyph-name="quotedblbase" unicode="&#x201e;" horiz-adv-x="1100" 
d="M130 346h400v-310l-112 -382h-233l58 327h-113v365zM620 346h400v-310l-112 -382h-233l58 327h-113v365z" />
    <glyph glyph-name="dagger" unicode="&#x2020;" horiz-adv-x="1504" 
d="M864 1475l366 50q15 2 29 2q115 0 115 -161q0 -163 -123 -163q-14 0 -29 2l-354 52q24 -183 24 -484v-160q0 -297 26 -495q2 -14 2 -27q0 -110 -165 -111q-169 0 -169 120q0 11 2 24q28 187 28 463q0 51 -1 104q-1 43 -1 85q0 293 27 477l-366 -50q-15 -2 -29 -2
q-115 0 -116 161q0 163 123 163q14 0 29 -2l355 -53l-50 372q-3 15 -3 29q0 110 166 110q168 0 168 -118q0 -13 -2 -26z" />
    <glyph glyph-name="daggerdbl" unicode="&#x2021;" horiz-adv-x="1504" 
d="M916 1837q-37 -253 -39 -350q86 2 352 38q15 2 29 2q115 0 116 -161q0 -163 -123 -163q-14 0 -29 2l-355 52l12 -85q38 -30 38 -82q0 -9 -1 -19q-6 -40 -6 -85q0 -49 7 -102q2 -11 2 -21q0 -55 -45 -83l-11 -71l366 49q15 2 29 2q115 0 116 -160q0 -164 -125 -164
q-12 0 -27 2l-355 53l50 -373q2 -14 2 -27q0 -110 -165 -111q-169 0 -169 120q0 11 2 24l53 362l-365 -49q-16 -3 -31 -3q-114 0 -114 161q0 163 123 163q13 0 28 -2l355 -52l-12 85q-38 30 -38 83q0 9 1 19q6 40 6 84q0 49 -7 102q-2 11 -2 21q0 55 45 83l11 72l-366 -50
q-15 -2 -29 -2q-115 0 -115 161q0 163 123 163q13 0 28 -2l355 -53l-50 373q-2 15 -2 27q0 111 165 111q169 0 169 -120q0 -11 -2 -24z" />
    <glyph glyph-name="bullet" unicode="&#x2022;" horiz-adv-x="1037" 
d="M794 1254q113 -113 113 -271q0 -157 -112 -269q-114 -114 -277 -114q-162 0 -276 114q-112 112 -112 269q0 158 113 271t275 113q163 0 276 -113z" />
    <glyph glyph-name="ellipsis" unicode="&#x2026;" horiz-adv-x="2048" 
d="M120 345h375v-365h-375v365zM803 345h375v-365h-375v365zM1486 345h375v-365h-375v365z" />
    <glyph glyph-name="guilsinglleft" unicode="&#x2039;" horiz-adv-x="874" 
d="M744 1171l-215 -182l215 -176v-382l-614 571l614 560v-391z" />
    <glyph glyph-name="guilsinglright" unicode="&#x203a;" horiz-adv-x="874" 
d="M130 1562l614 -560l-614 -571v382l215 176l-215 182v391z" />
    <glyph glyph-name="fraction" unicode="&#x2044;" horiz-adv-x="409" 
d="M681 1983l-736 -2003h-228l737 2003h227z" />
    <glyph glyph-name="fraction" unicode="&#x2215;" horiz-adv-x="409" 
d="M681 1983l-736 -2003h-228l737 2003h227z" />
    <glyph glyph-name="franc" unicode="&#x20a3;" horiz-adv-x="1013" 
d="M169 616v1366h784v-319h-451v-522h388v-320h-388v-205h186v-251h-186v-385h-333v385h-119v251h119z" />
    <glyph glyph-name="lira" unicode="&#x20a4;" horiz-adv-x="1175" 
d="M252 1255v326q0 433 432 433q431 0 431 -433v-283h-333v283q0 113 -98 113h-2q-97 0 -97 -113v-326h332v-199h-332v-118h332v-199h-332v-187q0 -182 -46 -253h498v-319h-977v319h94q98 0 98 114v326h-192v199h192v118h-192v199h192z" />
    <glyph glyph-name="peseta" unicode="&#x20a7;" horiz-adv-x="2225" 
d="M435 1663v-522h33q47 0 62 6q55 25 55 107v295q0 114 -85 114h-65zM890 1463v-209q0 -317 -259 -410q-63 -23 -180 -23h-16v-841h-305v2002l396 -1q274 0 338 -232h729v-14q65 42 244 42q432 0 432 -384v-252h-333v252q0 97 -98 98q-99 0 -99 -98v-156q0 -106 255 -267
q275 -172 275 -415v-219q0 -383 -431 -383q-432 0 -432 383v253h333v-253q0 -97 99 -97q98 0 98 97v197q0 116 -253 276q-277 174 -277 422v162q0 49 3 70h-81v-1483h-333v1483h-105z" />
    <glyph glyph-name="Euro" unicode="&#x20ac;" horiz-adv-x="1144" 
d="M171 1239v342q0 433 431 433q432 0 432 -433v-283h-333v283q0 113 -98 113h-2q-97 0 -97 -113v-342h382v-198h-382v-120h382v-198h-382v-342q0 -113 98 -113q99 0 99 113v284h333v-284q0 -432 -432 -432q-431 0 -431 432v342h-141v198h141v120h-141v198h141z" />
    <glyph glyph-name="uni2116" unicode="&#x2116;" horiz-adv-x="1850" 
d="M130 1982h329l222 -986v986h312v-2002h-329l-212 959v-959h-322v2002zM1780 1110q0 -238 -294 -238q-293 0 -293 238v634q0 238 293 238q294 0 294 -238v-634zM1543 1744q0 50 -56 51q-57 0 -57 -51v-634q0 -51 56 -51q57 0 57 51v634zM1203 486v215h566v-215h-566z" />
    <glyph glyph-name="trademark" unicode="&#x2122;" horiz-adv-x="1158" 
d="M476 1749v-152h-119v-673h-178v673h-119v152h416zM781 1284l128 466h173v-825h-172v256l-63 -256h-128l-67 262v-262h-173v825h172z" />
    <glyph glyph-name="partialdiff" unicode="&#x2202;" horiz-adv-x="1103" 
d="M650 1159q0 408 -429 573l82 259q680 -200 680 -939v-639q0 -433 -432 -433q-431 0 -431 433v365q0 412 375 412q116 0 155 -31zM453 413q0 -113 99 -113q98 0 98 113v365q0 110 -77 113q-14 1 -26 1q-46 0 -63 -8q-31 -13 -31 -106v-365z" />
    <glyph glyph-name="minus" unicode="&#x2212;" horiz-adv-x="1095" 
d="M975 1120v-274h-855v274h855z" />
    <glyph glyph-name="approxequal" unicode="&#x2248;" horiz-adv-x="1100" 
d="M307 904l-207 135l63 97q106 165 254 165h11q97 -4 238 -110q63 -47 97 -47q17 0 29 15l79 99l192 -153l-73 -92q-97 -123 -225 -123h-13q-97 4 -238 111q-74 56 -85 58h-3q-19 0 -51 -49zM307 488l-207 135l63 97q106 165 254 165h11q97 -4 238 -110q63 -47 97 -47
q17 0 29 15l79 99l192 -153l-73 -92q-97 -123 -225 -123h-13q-97 4 -238 111q-74 56 -85 58h-3q-19 0 -51 -49z" />
    <glyph glyph-name="lessequal" unicode="&#x2264;" horiz-adv-x="1047" 
d="M120 1089l857 480v-323l-567 -310l567 -300v-323l-857 465v311zM975 254v-274h-855v274h855z" />
    <glyph glyph-name="greaterequal" unicode="&#x2265;" horiz-adv-x="1047" 
d="M977 778l-857 -465v323l567 300l-567 310v323l857 -480v-311zM975 254v-274h-855v274h855z" />
    <glyph glyph-name="uniF001" unicode="&#xf001;" horiz-adv-x="1472" 
d="M130 1742h784v-281h-451v-459h388v-282h-388v-740h-333v1762zM1059 1742h333v-1762h-333v1762z" />
    <glyph glyph-name="uniF001" unicode="&#xfb01;" horiz-adv-x="1472" 
d="M130 1742h784v-281h-451v-459h388v-282h-388v-740h-333v1762zM1059 1742h333v-1762h-333v1762z" />
    <glyph glyph-name="uniF002" unicode="&#xf002;" horiz-adv-x="1848" 
d="M130 1742h784v-281h-451v-459h388v-282h-388v-740h-333v1762zM1054 -20v1762h333v-1481h451v-281h-784z" />
    <glyph glyph-name="uniF002" unicode="&#xfb02;" horiz-adv-x="1848" 
d="M130 1742h784v-281h-451v-459h388v-282h-388v-740h-333v1762zM1054 -20v1762h333v-1481h451v-281h-784z" />
    </font>
</defs>
</svg>
